# xmcd
#
# Track frame offsets:
#	150
#	15983
#	27494
#	49386
#	60123
#	77090
#	95301
#	113454
#	129176
#	146848
#	160588
#	179714
#	198073
#	215989
#
# Disc length: 3178 seconds
#
# Revision: 1
# Processed by: cddbd v1.5.2PL0 Copyright (c) Steve Scherf et al.
# Submitted via: audiograbber 1.83.01
#
DISCID=b40c680e
DTITLE=Jackie Barnett - Wheatfields
DYEAR=2006
DGENRE=Country
TTITLE0=Wheatfields
TTITLE1=Old Dan Tucker
TTITLE2=Bar Room Girls
TTITLE3=Slipping Around
TTITLE4=Down And Dirty
TTITLE5=Lonely Hearts Club Dance
TTITLE6=Old River Band Version
TTITLE7=Boy Ive Got News
TTITLE8=Jessie James
TTITLE9=The Temptress
TTITLE10=Your Still Here
TTITLE11=John Henry
TTITLE12=Old River Acoustic Version
TTITLE13=Train Of Sin
EXTD=
EXTT0=
EXTT1=
EXTT2=
EXTT3=
EXTT4=
EXTT5=
EXTT6=
EXTT7=
EXTT8=
EXTT9=
EXTT10=
EXTT11=
EXTT12=
EXTT13=
PLAYORDER=
